<svg xmlns="http://www.w3.org/2000/svg" xmlns:xlink="http://www.w3.org/1999/xlink" width="600" zoomAndPan="magnify" viewBox="0 0 450 337.499995" height="450" preserveAspectRatio="xMidYMid meet" version="1.0"><defs><clipPath id="895c87ed46"><path d="M 10.515625 7 L 332 7 L 332 329.878906 L 10.515625 329.878906 Z M 10.515625 7 " clip-rule="nonzero"/></clipPath><clipPath id="2a5bc66b56"><path d="M 119 8 L 441.664062 8 L 441.664062 329 L 119 329 Z M 119 8 " clip-rule="nonzero"/></clipPath></defs><g clip-path="url(#895c87ed46)"><path fill="#00c2cb" d="M 29.484375 320.421875 C 29.484375 322.910156 28.496094 325.304688 26.734375 327.066406 C 24.976562 328.835938 22.585938 329.828125 20.089844 329.828125 C 17.605469 329.828125 15.210938 328.835938 13.453125 327.066406 C 11.683594 325.304688 10.695312 322.910156 10.695312 320.421875 L 10.695312 13.765625 C 10.695312 8.101562 14.789062 5.585938 19.832031 8.152344 L 172.578125 85.847656 L 328.160156 164.976562 C 333.207031 167.542969 333.207031 171.707031 328.160156 174.273438 L 67.863281 306.667969 C 65.644531 307.796875 63.0625 307.996094 60.699219 307.226562 C 58.332031 306.445312 56.359375 304.761719 55.230469 302.539062 C 54.105469 300.316406 53.90625 297.734375 54.675781 295.363281 C 55.453125 292.996094 57.136719 291.027344 59.355469 289.890625 L 290.480469 172.335938 C 293.425781 170.839844 293.425781 168.410156 290.480469 166.914062 L 164.070312 102.617188 L 34.816406 36.875 C 31.875 35.375 29.484375 36.84375 29.484375 40.148438 Z M 29.484375 320.421875 " fill-opacity="1" fill-rule="nonzero"/></g><g clip-path="url(#2a5bc66b56)"><path fill="#00c2cb" d="M 124.480469 26.234375 C 122.257812 25.105469 120.578125 23.128906 119.808594 20.761719 C 119.03125 18.394531 119.234375 15.808594 120.363281 13.585938 C 121.492188 11.363281 123.453125 9.679688 125.820312 8.902344 C 128.195312 8.132812 130.777344 8.328125 132.996094 9.457031 L 438.746094 164.976562 C 443.789062 167.542969 443.789062 171.707031 438.746094 174.273438 L 138.136719 327.175781 C 135.917969 328.304688 133.328125 328.5 130.964844 327.730469 C 128.597656 326.960938 126.632812 325.269531 125.503906 323.046875 C 124.378906 320.820312 124.171875 318.238281 124.949219 315.871094 C 125.71875 313.5 127.402344 311.535156 129.621094 310.40625 L 401.074219 172.335938 C 404.015625 170.839844 404.015625 168.410156 401.074219 166.914062 Z M 124.480469 26.234375 " fill-opacity="1" fill-rule="nonzero"/></g><path fill="#00c2cb" d="M 53.578125 254.648438 C 53.578125 254.105469 53.628906 253.570312 53.730469 253.039062 C 53.835938 252.507812 53.988281 251.992188 54.1875 251.492188 C 54.390625 250.992188 54.640625 250.515625 54.933594 250.066406 C 55.226562 249.613281 55.558594 249.199219 55.933594 248.8125 C 56.304688 248.429688 56.710938 248.089844 57.152344 247.789062 C 57.589844 247.488281 58.054688 247.234375 58.539062 247.027344 C 59.027344 246.820312 59.53125 246.660156 60.050781 246.554688 C 60.566406 246.449219 61.089844 246.398438 61.617188 246.398438 C 62.144531 246.398438 62.667969 246.449219 63.1875 246.554688 C 63.703125 246.660156 64.207031 246.820312 64.695312 247.027344 C 65.183594 247.234375 65.644531 247.488281 66.085938 247.789062 C 66.523438 248.089844 66.929688 248.429688 67.304688 248.8125 C 67.675781 249.199219 68.007812 249.613281 68.304688 250.066406 C 68.597656 250.515625 68.84375 250.992188 69.046875 251.492188 C 69.25 251.992188 69.402344 252.507812 69.503906 253.039062 C 69.605469 253.570312 69.65625 254.105469 69.65625 254.648438 C 69.65625 255.191406 69.605469 255.726562 69.503906 256.257812 C 69.402344 256.789062 69.25 257.308594 69.046875 257.808594 C 68.84375 258.308594 68.597656 258.785156 68.304688 259.234375 C 68.007812 259.683594 67.675781 260.101562 67.304688 260.484375 C 66.929688 260.867188 66.523438 261.210938 66.085938 261.511719 C 65.644531 261.8125 65.183594 262.066406 64.695312 262.273438 C 64.207031 262.480469 63.703125 262.636719 63.1875 262.742188 C 62.667969 262.847656 62.144531 262.902344 61.617188 262.902344 C 61.089844 262.902344 60.566406 262.847656 60.050781 262.742188 C 59.53125 262.636719 59.027344 262.480469 58.539062 262.273438 C 58.054688 262.066406 57.589844 261.8125 57.152344 261.511719 C 56.710938 261.210938 56.304688 260.867188 55.933594 260.484375 C 55.558594 260.101562 55.226562 259.683594 54.933594 259.234375 C 54.640625 258.785156 54.390625 258.308594 54.1875 257.808594 C 53.988281 257.308594 53.835938 256.789062 53.730469 256.257812 C 53.628906 255.726562 53.578125 255.191406 53.578125 254.648438 Z M 53.578125 221.644531 C 53.578125 221.101562 53.628906 220.566406 53.730469 220.035156 C 53.835938 219.503906 53.988281 218.988281 54.1875 218.488281 C 54.390625 217.988281 54.640625 217.511719 54.933594 217.0625 C 55.226562 216.609375 55.558594 216.195312 55.933594 215.8125 C 56.304688 215.425781 56.710938 215.085938 57.152344 214.785156 C 57.589844 214.484375 58.054688 214.230469 58.539062 214.023438 C 59.027344 213.816406 59.53125 213.660156 60.050781 213.550781 C 60.566406 213.445312 61.089844 213.394531 61.617188 213.394531 C 62.144531 213.394531 62.667969 213.445312 63.1875 213.550781 C 63.703125 213.660156 64.207031 213.816406 64.695312 214.023438 C 65.183594 214.230469 65.644531 214.484375 66.085938 214.785156 C 66.523438 215.085938 66.929688 215.425781 67.304688 215.8125 C 67.675781 216.195312 68.007812 216.609375 68.304688 217.0625 C 68.597656 217.511719 68.84375 217.988281 69.046875 218.488281 C 69.25 218.988281 69.402344 219.503906 69.503906 220.035156 C 69.605469 220.566406 69.65625 221.101562 69.65625 221.644531 C 69.65625 222.1875 69.605469 222.722656 69.503906 223.253906 C 69.402344 223.789062 69.25 224.304688 69.046875 224.804688 C 68.84375 225.304688 68.597656 225.78125 68.304688 226.230469 C 68.007812 226.679688 67.675781 227.097656 67.304688 227.480469 C 66.929688 227.863281 66.523438 228.207031 66.085938 228.507812 C 65.644531 228.808594 65.183594 229.0625 64.695312 229.269531 C 64.207031 229.476562 63.703125 229.632812 63.1875 229.738281 C 62.667969 229.84375 62.144531 229.898438 61.617188 229.898438 C 61.089844 229.898438 60.566406 229.84375 60.050781 229.738281 C 59.53125 229.632812 59.027344 229.476562 58.539062 229.269531 C 58.054688 229.0625 57.589844 228.808594 57.152344 228.507812 C 56.710938 228.207031 56.304688 227.863281 55.933594 227.480469 C 55.558594 227.097656 55.226562 226.679688 54.933594 226.230469 C 54.640625 225.78125 54.390625 225.304688 54.1875 224.804688 C 53.988281 224.304688 53.835938 223.789062 53.730469 223.253906 C 53.628906 222.722656 53.578125 222.1875 53.578125 221.644531 Z M 53.578125 188.640625 C 53.578125 188.097656 53.628906 187.5625 53.730469 187.03125 C 53.835938 186.5 53.988281 185.984375 54.1875 185.484375 C 54.390625 184.984375 54.640625 184.507812 54.933594 184.058594 C 55.226562 183.605469 55.558594 183.191406 55.933594 182.808594 C 56.304688 182.421875 56.710938 182.082031 57.152344 181.78125 C 57.589844 181.480469 58.054688 181.226562 58.539062 181.019531 C 59.027344 180.8125 59.53125 180.65625 60.050781 180.546875 C 60.566406 180.441406 61.089844 180.390625 61.617188 180.390625 C 62.144531 180.390625 62.667969 180.441406 63.1875 180.546875 C 63.703125 180.65625 64.207031 180.8125 64.695312 181.019531 C 65.183594 181.226562 65.644531 181.480469 66.085938 181.78125 C 66.523438 182.082031 66.929688 182.421875 67.304688 182.808594 C 67.675781 183.191406 68.007812 183.605469 68.304688 184.058594 C 68.597656 184.507812 68.84375 184.984375 69.046875 185.484375 C 69.25 185.984375 69.402344 186.5 69.503906 187.03125 C 69.605469 187.5625 69.65625 188.097656 69.65625 188.640625 C 69.65625 189.183594 69.605469 189.722656 69.503906 190.253906 C 69.402344 190.785156 69.25 191.300781 69.046875 191.800781 C 68.84375 192.300781 68.597656 192.777344 68.304688 193.226562 C 68.007812 193.675781 67.675781 194.09375 67.304688 194.476562 C 66.929688 194.859375 66.523438 195.203125 66.085938 195.503906 C 65.644531 195.804688 65.183594 196.058594 64.695312 196.265625 C 64.207031 196.472656 63.703125 196.628906 63.1875 196.734375 C 62.667969 196.839844 62.144531 196.894531 61.617188 196.894531 C 61.089844 196.894531 60.566406 196.839844 60.050781 196.734375 C 59.53125 196.628906 59.027344 196.472656 58.539062 196.265625 C 58.054688 196.058594 57.589844 195.804688 57.152344 195.503906 C 56.710938 195.203125 56.304688 194.859375 55.933594 194.476562 C 55.558594 194.09375 55.226562 193.675781 54.933594 193.226562 C 54.640625 192.777344 54.390625 192.300781 54.1875 191.800781 C 53.988281 191.300781 53.835938 190.785156 53.730469 190.253906 C 53.628906 189.722656 53.578125 189.183594 53.578125 188.640625 Z M 53.578125 155.636719 C 53.578125 155.09375 53.628906 154.558594 53.730469 154.027344 C 53.835938 153.496094 53.988281 152.980469 54.1875 152.480469 C 54.390625 151.980469 54.640625 151.503906 54.933594 151.054688 C 55.226562 150.601562 55.558594 150.1875 55.933594 149.804688 C 56.304688 149.421875 56.710938 149.078125 57.152344 148.777344 C 57.589844 148.476562 58.054688 148.222656 58.539062 148.015625 C 59.027344 147.808594 59.53125 147.652344 60.050781 147.546875 C 60.566406 147.4375 61.089844 147.386719 61.617188 147.386719 C 62.144531 147.386719 62.667969 147.4375 63.1875 147.546875 C 63.703125 147.652344 64.207031 147.808594 64.695312 148.015625 C 65.183594 148.222656 65.644531 148.476562 66.085938 148.777344 C 66.523438 149.078125 66.929688 149.421875 67.304688 149.804688 C 67.675781 150.1875 68.007812 150.601562 68.304688 151.054688 C 68.597656 151.503906 68.84375 151.980469 69.046875 152.480469 C 69.25 152.980469 69.402344 153.496094 69.503906 154.027344 C 69.605469 154.558594 69.65625 155.09375 69.65625 155.636719 C 69.65625 156.179688 69.605469 156.71875 69.503906 157.25 C 69.402344 157.78125 69.25 158.296875 69.046875 158.796875 C 68.84375 159.296875 68.597656 159.773438 68.304688 160.222656 C 68.007812 160.671875 67.675781 161.089844 67.304688 161.472656 C 66.929688 161.855469 66.523438 162.199219 66.085938 162.5 C 65.644531 162.800781 65.183594 163.054688 64.695312 163.261719 C 64.207031 163.46875 63.703125 163.625 63.1875 163.730469 C 62.667969 163.835938 62.144531 163.890625 61.617188 163.890625 C 61.089844 163.890625 60.566406 163.835938 60.050781 163.730469 C 59.53125 163.625 59.027344 163.46875 58.539062 163.261719 C 58.054688 163.054688 57.589844 162.800781 57.152344 162.5 C 56.710938 162.199219 56.304688 161.855469 55.933594 161.472656 C 55.558594 161.089844 55.226562 160.671875 54.933594 160.222656 C 54.640625 159.773438 54.390625 159.296875 54.1875 158.796875 C 53.988281 158.296875 53.835938 157.78125 53.730469 157.25 C 53.628906 156.71875 53.578125 156.179688 53.578125 155.636719 Z M 53.578125 122.636719 L 53.578125 122.632812 C 53.578125 122.089844 53.628906 121.554688 53.730469 121.023438 C 53.835938 120.492188 53.988281 119.976562 54.1875 119.476562 C 54.390625 118.976562 54.640625 118.5 54.933594 118.050781 C 55.226562 117.597656 55.558594 117.183594 55.933594 116.800781 C 56.304688 116.417969 56.710938 116.074219 57.152344 115.773438 C 57.589844 115.472656 58.054688 115.21875 58.539062 115.011719 C 59.027344 114.804688 59.53125 114.648438 60.050781 114.542969 C 60.566406 114.4375 61.089844 114.382812 61.617188 114.382812 C 62.144531 114.382812 62.667969 114.4375 63.1875 114.542969 C 63.703125 114.648438 64.207031 114.804688 64.695312 115.011719 C 65.183594 115.21875 65.644531 115.472656 66.085938 115.773438 C 66.523438 116.074219 66.929688 116.417969 67.304688 116.800781 C 67.675781 117.183594 68.007812 117.597656 68.304688 118.050781 C 68.597656 118.5 68.84375 118.976562 69.046875 119.476562 C 69.25 119.976562 69.402344 120.492188 69.503906 121.023438 C 69.605469 121.554688 69.65625 122.089844 69.65625 122.632812 L 69.65625 122.636719 C 69.65625 123.175781 69.605469 123.714844 69.503906 124.246094 C 69.402344 124.777344 69.25 125.292969 69.046875 125.792969 C 68.84375 126.292969 68.597656 126.769531 68.304688 127.21875 C 68.007812 127.667969 67.675781 128.085938 67.304688 128.46875 C 66.929688 128.851562 66.523438 129.195312 66.085938 129.496094 C 65.644531 129.796875 65.183594 130.050781 64.695312 130.257812 C 64.207031 130.464844 63.703125 130.621094 63.1875 130.726562 C 62.667969 130.832031 62.144531 130.886719 61.617188 130.886719 C 61.089844 130.886719 60.566406 130.832031 60.050781 130.726562 C 59.53125 130.621094 59.027344 130.464844 58.539062 130.257812 C 58.054688 130.050781 57.589844 129.796875 57.152344 129.496094 C 56.710938 129.195312 56.304688 128.851562 55.933594 128.46875 C 55.558594 128.085938 55.226562 127.667969 54.933594 127.21875 C 54.640625 126.769531 54.390625 126.292969 54.1875 125.792969 C 53.988281 125.292969 53.835938 124.777344 53.730469 124.246094 C 53.628906 123.714844 53.578125 123.175781 53.578125 122.636719 Z M 53.578125 89.632812 L 53.578125 89.628906 C 53.578125 89.085938 53.628906 88.550781 53.730469 88.019531 C 53.835938 87.488281 53.988281 86.972656 54.1875 86.472656 C 54.390625 85.972656 54.640625 85.496094 54.933594 85.046875 C 55.226562 84.59375 55.558594 84.179688 55.933594 83.796875 C 56.304688 83.414062 56.710938 83.070312 57.152344 82.769531 C 57.589844 82.46875 58.054688 82.214844 58.539062 82.007812 C 59.027344 81.800781 59.53125 81.644531 60.050781 81.539062 C 60.566406 81.433594 61.089844 81.378906 61.617188 81.378906 C 62.144531 81.378906 62.667969 81.433594 63.1875 81.539062 C 63.703125 81.644531 64.207031 81.800781 64.695312 82.007812 C 65.183594 82.214844 65.644531 82.46875 66.085938 82.769531 C 66.523438 83.070312 66.929688 83.414062 67.304688 83.796875 C 67.675781 84.179688 68.007812 84.59375 68.304688 85.046875 C 68.597656 85.496094 68.84375 85.972656 69.046875 86.472656 C 69.25 86.972656 69.402344 87.488281 69.503906 88.019531 C 69.605469 88.550781 69.65625 89.085938 69.65625 89.628906 L 69.65625 89.632812 C 69.65625 90.171875 69.605469 90.710938 69.503906 91.242188 C 69.402344 91.773438 69.25 92.289062 69.046875 92.789062 C 68.84375 93.289062 68.597656 93.765625 68.304688 94.214844 C 68.007812 94.664062 67.675781 95.082031 67.304688 95.464844 C 66.929688 95.847656 66.523438 96.191406 66.085938 96.492188 C 65.644531 96.792969 65.183594 97.046875 64.695312 97.253906 C 64.207031 97.460938 63.703125 97.617188 63.1875 97.722656 C 62.667969 97.828125 62.144531 97.882812 61.617188 97.882812 C 61.089844 97.882812 60.566406 97.828125 60.050781 97.722656 C 59.53125 97.617188 59.027344 97.460938 58.539062 97.253906 C 58.054688 97.046875 57.589844 96.792969 57.152344 96.492188 C 56.710938 96.191406 56.304688 95.847656 55.933594 95.464844 C 55.558594 95.082031 55.226562 94.664062 54.933594 94.214844 C 54.640625 93.765625 54.390625 93.289062 54.1875 92.789062 C 53.988281 92.289062 53.835938 91.773438 53.730469 91.242188 C 53.628906 90.710938 53.578125 90.171875 53.578125 89.632812 Z M 53.578125 89.632812 " fill-opacity="1" fill-rule="nonzero"/></svg>